<svg width="18" height="18" viewBox="0 0 18 18" fill="none" xmlns="http://www.w3.org/2000/svg">
<path d="M14.7803 12.5303C15.0732 12.2374 15.0732 11.7626 14.7803 11.4697C14.4874 11.1768 14.0126 11.1768 13.7197 11.4697L12 13.1893L12 3C12 2.58579 11.6642 2.25 11.25 2.25C10.8358 2.25 10.5 2.58579 10.5 3L10.5 14.8189C10.5 15.5539 11.3886 15.922 11.9084 15.4023L14.7803 12.5303Z" fill="#09244B"/>
<path d="M3.21967 5.46967C2.92678 5.76256 2.92678 6.23744 3.21967 6.53033C3.51256 6.82322 3.98744 6.82322 4.28033 6.53033L6 4.81066L6 15C6 15.4142 6.33579 15.75 6.75 15.75C7.16421 15.75 7.5 15.4142 7.5 15L7.5 3.18107C7.5 2.44607 6.61136 2.07798 6.09164 2.5977L3.21967 5.46967Z" fill="#09244B"/>
</svg>
