<svg width="14" height="14" viewBox="0 0 14 14" fill="none" xmlns="http://www.w3.org/2000/svg">
<path fill-rule="evenodd" clip-rule="evenodd" d="M3.9883 10.1529C5.34921 10.1529 6.45244 8.80446 6.45244 7.14113C6.45244 5.4778 5.34921 4.1294 3.9883 4.1294C2.62739 4.1294 1.52415 5.4778 1.52415 7.14113C1.52415 8.80446 2.62739 10.1529 3.9883 10.1529ZM3.9883 11.2823C5.85955 11.2823 7.37649 9.42821 7.37649 7.14113C7.37649 4.85405 5.85955 3 3.9883 3C2.11705 3 0.600098 4.85405 0.600098 7.14113C0.600098 9.42821 2.11705 11.2823 3.9883 11.2823Z" fill="#202020"/>
<path fill-rule="evenodd" clip-rule="evenodd" d="M10.012 10.1529C11.3729 10.1529 12.4761 8.80446 12.4761 7.14113C12.4761 5.4778 11.3729 4.1294 10.012 4.1294C8.65107 4.1294 7.54783 5.4778 7.54783 7.14113C7.54783 8.80446 8.65107 10.1529 10.012 10.1529ZM10.012 11.2823C11.8832 11.2823 13.4002 9.42821 13.4002 7.14113C13.4002 4.85405 11.8832 3 10.012 3C8.14073 3 6.62378 4.85405 6.62378 7.14113C6.62378 9.42821 8.14073 11.2823 10.012 11.2823Z" fill="#202020"/>
<path d="M6.62355 7.14112C6.62355 8.18071 5.94935 9.02345 5.11768 9.02345C4.28602 9.02345 3.61182 8.18071 3.61182 7.14112C3.61182 6.10154 4.28602 5.25879 5.11768 5.25879C5.94935 5.25879 6.62355 6.10154 6.62355 7.14112Z" fill="#202020"/>
<path d="M12.647 7.14112C12.647 8.18071 11.9728 9.02345 11.1411 9.02345C10.3095 9.02345 9.63525 8.18071 9.63525 7.14112C9.63525 6.10154 10.3095 5.25879 11.1411 5.25879C11.9728 5.25879 12.647 6.10154 12.647 7.14112Z" fill="#202020"/>
</svg>
