<svg width="16" height="16" viewBox="0 0 16 16" fill="none" xmlns="http://www.w3.org/2000/svg">
<path fill-rule="evenodd" clip-rule="evenodd" d="M11.889 2.45C12.5027 2.45 13.0001 2.94747 13.0001 3.56113V10.2279C13.0001 10.8416 12.5027 11.339 11.889 11.339H10.7779V12.4501C10.7779 13.0638 10.2804 13.5613 9.66676 13.5613H4.11113C3.49747 13.5613 3 13.0638 3 12.4501V5.78338C3 5.16972 3.49747 4.67226 4.11113 4.67226H5.22225V3.56113C5.22225 2.94747 5.71972 2.45 6.33338 2.45H11.889ZM6.33338 4.67226H9.66676C10.2804 4.67226 10.7779 5.16972 10.7779 5.78338V10.2279H11.889V3.56113L6.33338 3.56113V4.67226ZM4.11113 5.78338L9.66676 5.78338V12.4501H4.11113V5.78338ZM5.77782 7.45007C5.47099 7.45007 5.22225 7.69881 5.22225 8.00564C5.22225 8.31247 5.47099 8.5612 5.77782 8.5612H8.00007C8.3069 8.5612 8.55564 8.31247 8.55564 8.00564C8.55564 7.69881 8.3069 7.45007 8.00007 7.45007H5.77782ZM5.22225 10.2279C5.22225 9.92106 5.47099 9.67233 5.77782 9.67233H6.88895C7.19578 9.67233 7.44451 9.92106 7.44451 10.2279C7.44451 10.5347 7.19578 10.7835 6.88895 10.7835H5.77782C5.47099 10.7835 5.22225 10.5347 5.22225 10.2279Z" fill="black"/>
</svg>
