<svg width="18" height="18" viewBox="0 0 18 18" fill="none" xmlns="http://www.w3.org/2000/svg">
<path fill-rule="evenodd" clip-rule="evenodd" d="M9 10.0562L13.225 14.2812C13.5167 14.5729 13.9896 14.5729 14.2812 14.2812C14.5729 13.9896 14.5729 13.5167 14.2812 13.225L10.0563 9L14.2812 4.77501C14.5729 4.48334 14.5729 4.01044 14.2812 3.71877C13.9896 3.42709 13.5167 3.42709 13.225 3.71877L9 7.94375L4.775 3.71876C4.48333 3.42708 4.01043 3.42708 3.71876 3.71876C3.42708 4.01043 3.42708 4.48333 3.71876 4.775L7.94376 9L3.71876 13.225C3.42708 13.5167 3.42708 13.9896 3.71876 14.2812C4.01043 14.5729 4.48333 14.5729 4.77501 14.2812L9 10.0562Z" fill="#09244B"/>
</svg>
