<svg width="24" height="24" viewBox="0 0 24 24" fill="none" xmlns="http://www.w3.org/2000/svg">
<g clip-path="url(#clip0_69_5048)">
<path fill-rule="evenodd" clip-rule="evenodd" d="M4.5 9.5C4.5 5.35786 7.85786 2 12 2C16.1421 2 19.5 5.35786 19.5 9.5C19.5 12.0679 18.1005 14.1564 16.6502 15.6391C15.1897 17.1323 13.5623 18.1317 12.8455 18.5365C12.3176 18.8347 11.6824 18.8347 11.1545 18.5365C10.4377 18.1317 8.81027 17.1323 7.34978 15.6391C5.89953 14.1564 4.5 12.0679 4.5 9.5ZM14 9.5C14 10.6046 13.1046 11.5 12 11.5C10.8954 11.5 10 10.6046 10 9.5C10 8.39543 10.8954 7.5 12 7.5C13.1046 7.5 14 8.39543 14 9.5Z" fill="#202020"/>
<path d="M7.27991 18.5599C7.81012 18.4053 8.11462 17.8502 7.96003 17.32C7.80543 16.7897 7.25029 16.4853 6.72009 16.6398C6.05202 16.8346 5.43918 17.0847 4.97068 17.4058C4.53454 17.7048 4 18.2259 4 18.9996C4 19.7832 4.54781 20.3078 4.99033 20.6067C5.46776 20.9292 6.09289 21.1803 6.77553 21.3753C8.15442 21.7693 10.0012 21.9996 12 21.9996C13.9988 21.9996 15.8456 21.7693 17.2245 21.3753C17.9071 21.1803 18.5322 20.9292 19.0097 20.6067C19.4522 20.3078 20 19.7832 20 18.9996C20 18.2259 19.4655 17.7048 19.0293 17.4058C18.5608 17.0847 17.948 16.8346 17.2799 16.6398C16.7497 16.4853 16.1946 16.7897 16.04 17.32C15.8854 17.8502 16.1899 18.4053 16.7201 18.5599C17.2209 18.7059 17.5807 18.8607 17.8113 18.9996C17.5726 19.1433 17.1975 19.303 16.675 19.4523C15.5204 19.7822 13.8672 19.9996 12 19.9996C10.1328 19.9996 8.47958 19.7822 7.32497 19.4523C6.80251 19.303 6.42735 19.1433 6.18866 18.9996C6.41926 18.8607 6.77914 18.7059 7.27991 18.5599Z" fill="#202020"/>
</g>
<defs>
<clipPath id="clip0_69_5048">
<rect width="24" height="24" fill="white"/>
</clipPath>
</defs>
</svg>
