<svg width="20" height="20" viewBox="0 0 20 20" fill="none" xmlns="http://www.w3.org/2000/svg">
<g clip-path="url(#clip0_3158_24603)">
<path d="M9.99984 18.3333C5.39734 18.3333 1.6665 14.6025 1.6665 9.99996C1.6665 5.39746 5.39734 1.66663 9.99984 1.66663C14.6023 1.66663 18.3332 5.39746 18.3332 9.99996C18.3332 14.6025 14.6023 18.3333 9.99984 18.3333ZM9.169 13.3333L15.0607 7.44079L13.8823 6.26246L9.169 10.9766L6.8115 8.61913L5.63317 9.79746L9.169 13.3333Z" fill="white"/>
</g>
<rect x="4.44434" y="4.44446" width="11.1111" height="11.1111" fill="white"/>
<path fill-rule="evenodd" clip-rule="evenodd" d="M5.87305 10C5.87305 9.69319 6.12178 9.44446 6.4286 9.44446H13.5715C13.8783 9.44446 14.127 9.69319 14.127 10C14.127 10.3068 13.8783 10.5556 13.5715 10.5556H6.4286C6.12178 10.5556 5.87305 10.3068 5.87305 10Z" fill="#C3C8D0"/>
<path fill-rule="evenodd" clip-rule="evenodd" d="M9.99962 5.87305C10.3064 5.87305 10.5552 6.12178 10.5552 6.4286L10.5552 13.5715C10.5552 13.8783 10.3064 14.127 9.99962 14.127C9.69279 14.127 9.44406 13.8783 9.44406 13.5715L9.44406 6.4286C9.44406 6.12178 9.6928 5.87305 9.99962 5.87305Z" fill="#C3C8D0"/>
<defs>
<clipPath id="clip0_3158_24603">
<rect width="20" height="20" fill="white"/>
</clipPath>
</defs>
</svg>
