<svg width="261" height="69" viewBox="0 0 261 69" fill="none" xmlns="http://www.w3.org/2000/svg">
<path d="M102.695 6.02C102.785 7.16 102.785 8.93 102.695 10.07C102.215 10.13 101.315 10.16 100.115 10.16C100.115 12.8 100.085 15.2 100.055 16.46C99.1247 16.58 96.6347 16.55 95.5847 16.46C95.4947 13.88 95.4947 2.93 95.5847 0.649998C96.3947 0.53 99.0047 0.499998 100.055 0.649998C100.085 1.82 100.085 3.77 100.115 5.96C101.165 5.96 102.065 5.99 102.695 6.02ZM87.9047 5.03C86.0447 5.09 79.7447 5.09 77.4647 5.03C77.3447 3.86 77.3447 2.24 77.4647 1.13C79.8647 1.01 89.6447 0.979999 92.2847 1.13C92.4647 3.71 92.4347 7.73 92.2847 10.31C91.2047 10.43 88.9847 10.43 87.9047 10.31C87.9347 8.99 87.9347 6.32 87.9047 5.03ZM93.9647 15.65C92.3447 15.77 80.8247 15.77 76.2347 15.65C76.0847 14.48 76.0847 12.86 76.2347 11.75C77.0447 11.72 78.9947 11.69 81.3047 11.66C81.3047 9.98 81.3347 8.27 81.3647 7.25C82.2647 7.13 84.7247 7.13 85.8347 7.25C85.8647 8.42 85.8647 10.07 85.8647 11.66C89.3747 11.66 92.7647 11.69 93.9647 11.75C94.0847 13.01 94.0847 14.51 93.9647 15.65ZM88.9247 17.36C98.2547 17.36 100.565 19.19 100.565 22.79C100.565 26.78 97.8047 28.22 88.9247 28.22C79.5947 28.22 77.2847 26.39 77.2847 22.79C77.2847 18.8 80.0447 17.36 88.9247 17.36ZM88.9247 24.59C95.2547 24.59 96.0047 24.05 96.0047 22.79C96.0047 21.62 95.2247 20.99 88.9247 20.99C82.5947 20.99 81.8447 21.53 81.8447 22.79C81.8447 23.96 82.6247 24.59 88.9247 24.59ZM122.732 14.84C121.922 14.93 119.552 14.93 118.502 14.84C118.382 12.11 118.412 2.75 118.502 0.8C119.312 0.649998 121.832 0.679999 122.732 0.8C122.762 1.73 122.762 3.41 122.792 5.33H124.742C124.742 3.2 124.772 1.37 124.772 0.649998C125.582 0.499998 128.132 0.499998 129.032 0.649998C129.092 3.2 129.092 12.62 129.032 15.35C128.222 15.47 125.822 15.41 124.772 15.35C124.742 14.21 124.742 11.84 124.742 9.32H122.762C122.762 11.6 122.732 13.73 122.732 14.84ZM106.622 15.05C105.722 14.66 104.012 13.46 103.262 12.71C104.042 11.42 106.712 7.61 108.242 5.51C108.212 3.62 108.272 2.12 108.302 0.95C109.112 0.8 111.962 0.769998 113.012 0.95C113.042 2.36 113.102 3.95 113.072 5.84C114.812 7.85 117.362 10.88 118.172 11.99C117.482 12.83 115.922 14.18 115.052 14.63C114.212 13.76 112.232 11.42 110.612 9.44C109.172 11.54 107.402 14.09 106.622 15.05ZM117.572 16.28C126.902 16.28 129.212 18.26 129.212 22.19C129.212 26.51 126.452 28.1 117.572 28.1C108.242 28.1 105.932 26.12 105.932 22.19C105.932 17.87 108.692 16.28 117.572 16.28ZM117.572 24.38C123.902 24.38 124.652 23.66 124.652 22.19C124.652 20.81 123.872 20 117.572 20C111.242 20 110.492 20.72 110.492 22.19C110.492 23.57 111.272 24.38 117.572 24.38ZM144.3 18.05C135.12 18.05 132.39 15.38 132.39 9.68C132.39 3.98 135.12 1.31 144.3 1.31C153.48 1.31 156.21 3.98 156.21 9.68C156.21 15.38 153.48 18.05 144.3 18.05ZM144.3 14.03C149.79 14.03 151.56 13.04 151.56 9.68C151.56 6.32 149.79 5.33 144.3 5.33C138.81 5.33 137.04 6.32 137.04 9.68C137.04 13.04 138.81 14.03 144.3 14.03ZM131.4 26.93C131.28 25.85 131.28 24.2 131.4 23.03C137.64 22.91 154.38 22.97 157.2 23.03C157.32 24.14 157.32 25.67 157.2 26.93C154.62 27.11 134.94 27.05 131.4 26.93ZM183.478 17.75C181.018 17.84 163.378 17.9 160.648 17.75C160.438 14.21 160.468 11.09 160.648 7.64C162.688 7.58 176.638 7.58 178.288 7.64V5.36C175.798 5.42 163.288 5.42 160.768 5.36C160.648 4.22 160.648 2.57 160.768 1.43C162.988 1.31 180.238 1.31 182.878 1.46C183.088 4.97 183.058 8.09 182.878 11.54C180.838 11.66 168.238 11.57 165.298 11.54V13.82C167.578 13.79 180.958 13.76 183.478 13.82C183.598 14.96 183.598 16.61 183.478 17.75ZM184.798 23.03C184.918 24.14 184.918 25.67 184.798 26.93C182.218 27.11 162.538 27.05 158.998 26.93C158.878 25.85 158.878 24.2 158.998 23.03C161.428 22.97 165.418 22.97 169.558 22.97C169.558 21.47 169.588 20.03 169.618 19.13C170.518 18.95 173.098 18.98 174.208 19.13C174.238 20.18 174.238 21.56 174.238 22.97C179.128 22.97 183.478 23 184.798 23.03ZM2.86172 51.57C2.68172 49.26 2.71172 43.14 2.86172 40.89C5.77172 40.74 21.4617 40.8 24.4617 40.89C24.5817 42.03 24.5817 43.53 24.4617 44.67C22.3617 44.73 9.70172 44.73 7.45172 44.67V47.79C9.82172 47.79 22.5417 47.76 24.7617 47.79C24.8517 48.96 24.8517 50.61 24.7617 51.57C22.3017 51.69 5.80172 51.66 2.86172 51.57ZM0.911719 57.33C0.791719 56.31 0.791719 54.69 0.911719 53.58C7.15172 53.46 23.8917 53.52 26.7117 53.58C26.8317 54.63 26.8317 56.16 26.7117 57.33C24.1317 57.51 4.45172 57.45 0.911719 57.33ZM2.56172 67.74C2.41172 65.52 2.47172 60.78 2.56172 59.01C3.49172 58.92 6.07172 58.95 7.15172 59.04C7.21172 60.54 7.21172 62.52 7.15172 63.84C13.7817 63.81 23.4117 63.78 25.6617 63.84C25.7817 64.92 25.7817 66.63 25.6617 67.74C23.2617 67.89 5.29172 67.89 2.56172 67.74ZM30.4594 51.57C30.2794 49.26 30.3094 43.14 30.4594 40.89C33.3694 40.74 49.0594 40.8 52.0594 40.89C52.1794 42.03 52.1794 43.53 52.0594 44.67C49.9594 44.73 37.2994 44.73 35.0494 44.67V47.79C37.4194 47.79 50.1394 47.76 52.3594 47.79C52.4494 48.96 52.4494 50.61 52.3594 51.57C49.8994 51.69 33.3994 51.66 30.4594 51.57ZM28.5094 57.33C28.3894 56.31 28.3894 54.69 28.5094 53.58C34.7494 53.46 51.4894 53.52 54.3094 53.58C54.4294 54.63 54.4294 56.16 54.3094 57.33C51.7294 57.51 32.0494 57.45 28.5094 57.33ZM30.1594 67.74C30.0094 65.52 30.0694 60.78 30.1594 59.01C31.0894 58.92 33.6694 58.95 34.7494 59.04C34.8094 60.54 34.8094 62.52 34.7494 63.84C41.3794 63.81 51.0094 63.78 53.2594 63.84C53.3794 64.92 53.3794 66.63 53.2594 67.74C50.8594 67.89 32.8894 67.89 30.1594 67.74ZM73.477 46.35C70.867 46.41 57.727 46.41 55.957 46.35C55.837 45.21 55.837 43.68 55.957 42.57C56.557 42.54 59.317 42.51 62.557 42.51C62.557 41.73 62.557 40.86 62.617 40.2C63.427 40.02 66.127 40.02 67.327 40.2C67.357 40.86 67.387 41.7 67.357 42.51C69.937 42.51 72.277 42.54 73.477 42.57C73.537 43.62 73.567 45.33 73.477 46.35ZM82.597 49.02C82.687 50.16 82.687 51.93 82.597 53.07C82.117 53.13 81.217 53.16 80.017 53.16C80.017 56.88 79.987 60.24 79.957 61.5C79.027 61.62 76.537 61.59 75.487 61.5C75.397 58.92 75.397 42.93 75.487 40.65C76.297 40.53 78.907 40.5 79.957 40.65C79.987 42 79.987 45.33 80.017 48.96C81.067 48.96 81.967 48.99 82.597 49.02ZM73.327 52.92C73.327 57.24 71.077 58.59 64.957 58.59C58.837 58.59 56.587 57.24 56.587 52.92C56.587 48.6 58.837 47.25 64.957 47.25C71.077 47.25 73.327 48.6 73.327 52.92ZM60.787 52.92C60.787 54.51 61.657 55.05 64.957 55.05C68.257 55.05 69.127 54.51 69.127 52.92C69.127 51.33 68.257 50.79 64.957 50.79C61.657 50.79 60.787 51.33 60.787 52.92ZM62.587 63.84C69.217 63.81 78.217 63.78 80.467 63.84C80.587 64.92 80.587 66.63 80.467 67.74C78.067 67.89 60.847 67.89 58.117 67.74C57.967 65.52 58.027 61.71 58.117 59.94C59.047 59.85 61.507 59.85 62.587 59.94C62.647 61.44 62.647 62.22 62.587 63.84ZM107.374 46.35C104.764 46.41 91.6235 46.41 89.8535 46.35C89.7335 45.21 89.7335 43.68 89.8535 42.57C90.4535 42.54 93.2135 42.51 96.4535 42.51C96.4535 41.73 96.4535 40.86 96.5135 40.2C97.3235 40.02 100.024 40.02 101.224 40.2C101.254 40.86 101.284 41.7 101.254 42.51C103.834 42.51 106.174 42.54 107.374 42.57C107.434 43.62 107.464 45.33 107.374 46.35ZM116.494 49.02C116.584 50.16 116.584 51.93 116.494 53.07C116.014 53.13 115.114 53.16 113.914 53.16C113.914 56.88 113.884 60.24 113.854 61.5C112.924 61.62 110.434 61.59 109.384 61.5C109.294 58.92 109.294 42.93 109.384 40.65C110.194 40.53 112.804 40.5 113.854 40.65C113.884 42 113.884 45.33 113.914 48.96C114.964 48.96 115.864 48.99 116.494 49.02ZM107.224 52.92C107.224 57.24 104.974 58.59 98.8535 58.59C92.7335 58.59 90.4835 57.24 90.4835 52.92C90.4835 48.6 92.7335 47.25 98.8535 47.25C104.974 47.25 107.224 48.6 107.224 52.92ZM94.6835 52.92C94.6835 54.51 95.5535 55.05 98.8535 55.05C102.154 55.05 103.024 54.51 103.024 52.92C103.024 51.33 102.154 50.79 98.8535 50.79C95.5535 50.79 94.6835 51.33 94.6835 52.92ZM96.4835 63.84C103.114 63.81 112.114 63.78 114.364 63.84C114.484 64.92 114.484 66.63 114.364 67.74C111.964 67.89 94.7435 67.89 92.0135 67.74C91.8635 65.52 91.9235 61.71 92.0135 59.94C92.9435 59.85 95.4035 59.85 96.4835 59.94C96.5435 61.44 96.5435 62.22 96.4835 63.84ZM138.001 67.65C137.881 64.17 137.911 44.13 138.001 40.65C138.811 40.47 141.451 40.5 142.501 40.65C142.621 44.76 142.621 64.08 142.501 67.65C141.571 67.77 139.051 67.74 138.001 67.65ZM121.201 65.64C121.201 63.42 121.231 47.64 121.201 45.45C120.631 45.42 118.531 45.42 117.901 45.45C117.781 44.28 117.781 42.6 117.901 41.49C119.401 41.4 124.381 41.43 125.521 41.49C125.731 44.97 125.791 62.16 125.611 65.64C124.831 65.79 122.281 65.76 121.201 65.64ZM129.961 65.64C129.961 63.42 129.991 47.64 129.961 45.45C129.391 45.42 127.291 45.42 126.661 45.45C126.541 44.28 126.541 42.6 126.661 41.49C128.161 41.4 133.141 41.43 134.281 41.49C134.491 44.97 134.551 62.16 134.371 65.64C133.591 65.79 131.041 65.76 129.961 65.64ZM158.338 51.54C156.718 53.16 154.738 55.05 153.808 55.83C153.028 55.32 151.648 53.88 150.988 52.98C151.858 51.99 154.198 49.65 155.938 48.03C155.908 47.49 155.908 46.92 155.908 46.35C154.138 46.35 152.608 46.32 151.798 46.29C151.678 45.09 151.678 43.5 151.798 42.42C152.758 42.39 154.198 42.36 155.938 42.36C155.938 41.58 155.938 40.77 155.998 40.2C156.808 40.05 159.658 40.02 160.708 40.2C160.768 40.74 160.768 41.55 160.768 42.36C162.118 42.36 163.528 42.39 164.938 42.42C165.028 43.56 165.028 45.24 164.938 46.29C163.948 46.32 162.418 46.32 160.768 46.35V48.15C162.568 49.56 164.788 51.36 165.718 52.23C165.208 53.13 163.858 54.72 163.138 55.32C162.178 54.63 160.048 52.95 158.338 51.54ZM170.548 55.53C169.738 55.62 167.368 55.62 166.318 55.53C166.198 52.8 166.228 42.75 166.318 40.8C167.128 40.65 169.648 40.68 170.548 40.8C170.578 41.7 170.578 43.38 170.608 45.33H172.438C172.438 43.17 172.468 41.34 172.468 40.65C173.278 40.5 175.828 40.5 176.728 40.65C176.788 43.2 176.788 53.31 176.728 56.04C175.918 56.16 173.518 56.1 172.468 56.04C172.438 54.84 172.438 52.14 172.438 49.32H170.578C170.578 51.93 170.548 54.36 170.548 55.53ZM165.268 56.73C174.598 56.73 176.908 58.68 176.908 62.46C176.908 66.69 174.148 68.22 165.268 68.22C155.938 68.22 153.628 66.27 153.628 62.46C153.628 58.26 156.388 56.73 165.268 56.73ZM165.268 64.5C171.598 64.5 172.348 63.87 172.348 62.46C172.348 61.14 171.568 60.45 165.268 60.45C158.938 60.45 158.188 61.08 158.188 62.46C158.188 63.81 158.968 64.5 165.268 64.5ZM199.495 67.65C199.375 64.17 199.405 44.13 199.495 40.65C200.305 40.47 202.945 40.5 203.995 40.65C204.115 44.76 204.115 64.08 203.995 67.65C203.065 67.77 200.545 67.74 199.495 67.65ZM189.865 65.64C189.865 63.42 189.895 47.79 189.865 45.6C188.005 45.66 181.765 45.66 179.485 45.6C179.365 44.43 179.365 42.6 179.485 41.49C181.885 41.37 191.695 41.34 194.335 41.49C194.545 44.97 194.605 62.16 194.425 65.64C193.645 65.79 190.945 65.76 189.865 65.64ZM231.923 40.65C231.983 44.4 231.983 64.02 231.923 67.65C231.113 67.77 228.683 67.71 227.633 67.65C227.573 64.02 227.603 43.8 227.633 40.65C228.443 40.47 231.023 40.47 231.923 40.65ZM221.693 40.8C222.503 40.62 225.083 40.65 225.983 40.8C226.073 44.58 226.013 63.81 225.983 67.38C225.173 67.47 222.743 67.47 221.693 67.38C221.633 65.52 221.603 59.49 221.603 53.61C220.193 53.61 218.753 53.61 217.883 53.55C217.793 52.68 217.793 50.1 217.883 49.41C218.723 49.38 220.163 49.38 221.633 49.38C221.633 45.36 221.663 41.97 221.693 40.8ZM215.903 41.37C215.963 43.11 215.993 48.39 215.963 52.11C217.733 56.13 220.103 61.26 221.183 63.96C220.343 64.71 218.393 65.67 217.523 65.85C216.743 64.35 215.063 60.66 213.533 56.94C212.123 60.72 210.593 64.5 209.813 66.09C208.913 65.94 206.843 65.19 206.033 64.47L211.133 51.75C211.103 47.91 211.133 42.84 211.193 41.37C212.003 41.22 214.853 41.19 215.903 41.37ZM247.191 56.25C237.801 56.25 235.281 53.67 235.281 48.66C235.281 43.5 238.011 41.07 247.191 41.07C256.581 41.07 259.101 43.68 259.101 48.66C259.101 53.82 256.371 56.25 247.191 56.25ZM247.191 45.09C241.701 45.09 239.931 45.9 239.931 48.66C239.931 51.18 241.431 52.23 247.191 52.23C252.681 52.23 254.451 51.42 254.451 48.66C254.451 46.14 252.951 45.09 247.191 45.09ZM260.091 63.03C260.211 64.14 260.211 65.67 260.091 66.93C257.511 67.11 237.831 67.05 234.291 66.93C234.171 65.85 234.171 64.2 234.291 63.03C235.521 63 237.141 63 238.971 63C238.941 60.96 238.971 58.44 239.001 57.3C239.901 57.18 242.421 57.18 243.531 57.3C243.591 58.62 243.561 61.05 243.561 62.97C245.961 62.97 248.481 62.97 250.791 63C250.791 61.05 250.761 58.62 250.821 57.3C251.931 57.18 254.451 57.18 255.351 57.3C255.381 58.44 255.411 60.96 255.381 63C257.631 63 259.341 63.03 260.091 63.03Z" fill="#202020"/>
</svg>
