<svg width="226" height="70" viewBox="0 0 226 70" fill="none" xmlns="http://www.w3.org/2000/svg">
<path d="M19.88 5.79C13.25 5.82 5.05996 5.88 2.80996 5.79C2.68996 4.65 2.68996 3.03 2.80996 1.89C5.20996 1.74 21.68 1.77 24.41 1.89C24.56 4.44 24.56 9.3 24.41 10.74C23.54 10.83 20.75 10.83 19.88 10.74C19.85 9.12 19.85 7.32 19.88 5.79ZM26.66 12.15C26.78 13.2 26.78 14.85 26.66 16.02C24.08 16.2 4.39996 16.14 0.859961 16.02C0.739961 15 0.739961 13.26 0.859961 12.15C3.04996 12.12 6.52996 12.09 10.25 12.09C10.25 10.41 10.28 8.43 10.31 7.92C11.3 7.8 13.88 7.8 14.9 7.92C14.93 8.52 14.93 10.47 14.93 12.09C20.3 12.09 25.25 12.12 26.66 12.15ZM13.76 17.91C23.18 17.91 25.55 19.83 25.55 23.49C25.55 27.57 22.73 29.1 13.76 29.1C4.33996 29.1 1.96996 27.18 1.96996 23.49C1.96996 19.44 4.78996 17.91 13.76 17.91ZM13.76 25.38C20.18 25.38 20.99 24.84 20.99 23.49C20.99 22.23 20.15 21.63 13.76 21.63C7.33996 21.63 6.52996 22.17 6.52996 23.49C6.52996 24.78 7.36996 25.38 13.76 25.38ZM47.3876 15.84C46.5776 15.93 44.2076 15.93 43.1576 15.84C43.0376 13.11 43.0676 3.75 43.1576 1.8C43.9676 1.65 46.4876 1.68 47.3876 1.8C47.4176 2.73 47.4176 4.41 47.4476 6.33H49.3976C49.3976 4.2 49.4276 2.37 49.4276 1.65C50.2376 1.5 52.7876 1.5 53.6876 1.65C53.7476 4.2 53.7476 13.62 53.6876 16.35C52.8776 16.47 50.4776 16.41 49.4276 16.35C49.3976 15.21 49.3976 12.84 49.3976 10.32H47.4176C47.4176 12.6 47.3876 14.73 47.3876 15.84ZM31.2776 16.05C30.3776 15.66 28.6676 14.46 27.9176 13.71C28.6976 12.42 31.3676 8.61 32.8976 6.51C32.8676 4.62 32.9276 3.12 32.9576 1.95C33.7676 1.8 36.6176 1.77 37.6676 1.95C37.6976 3.36 37.7576 4.95 37.7276 6.84C39.4676 8.85 42.0176 11.88 42.8276 12.99C42.1376 13.83 40.5776 15.18 39.7076 15.63C38.8676 14.76 36.8876 12.42 35.2676 10.44C33.8276 12.54 32.0576 15.09 31.2776 16.05ZM42.2276 17.28C51.5576 17.28 53.8676 19.26 53.8676 23.19C53.8676 27.51 51.1076 29.1 42.2276 29.1C32.8976 29.1 30.5876 27.12 30.5876 23.19C30.5876 18.87 33.3476 17.28 42.2276 17.28ZM42.2276 25.38C48.5576 25.38 49.3076 24.66 49.3076 23.19C49.3076 21.81 48.5276 21 42.2276 21C35.8976 21 35.1476 21.72 35.1476 23.19C35.1476 24.57 35.9276 25.38 42.2276 25.38ZM67.5153 3.75C70.1253 3.75 72.4653 3.78 73.6653 3.84C73.7253 4.89 73.7553 6.78 73.6653 7.83C71.0253 7.86 57.8253 7.92 56.0553 7.83C55.9353 6.69 55.9353 4.95 56.0553 3.84C56.6553 3.81 59.4753 3.78 62.7453 3.78C62.7153 2.91 62.7453 1.83 62.8353 1.05C63.6753 0.869999 66.4053 0.899999 67.4553 1.05C67.5153 1.83 67.5453 2.85 67.5153 3.75ZM82.6653 12.21C82.7853 13.35 82.7853 15.33 82.6653 16.47C82.1853 16.53 81.2553 16.56 79.9953 16.56C79.9953 21.93 79.9653 27 79.9053 28.65C78.9753 28.77 76.4553 28.74 75.4053 28.65C75.2853 25.17 75.3153 5.13 75.4053 1.65C76.2153 1.47 78.8553 1.5 79.9053 1.65C79.9653 3.33 79.9953 7.53 79.9953 12.15C81.1053 12.15 82.0053 12.18 82.6653 12.21ZM65.1753 9.12C71.4453 9.12 73.5453 11.73 73.5453 18.48C73.5453 25.23 71.4453 27.84 65.1753 27.84C58.9053 27.84 56.8053 25.23 56.8053 18.48C56.8053 11.73 58.9053 9.12 65.1753 9.12ZM65.1753 24.15C68.3253 24.15 69.2553 22.86 69.2553 18.48C69.2553 14.1 68.3253 12.81 65.1753 12.81C62.0253 12.81 61.0953 14.1 61.0953 18.48C61.0953 22.86 62.0253 24.15 65.1753 24.15ZM85.6029 11.37C85.4529 8.82 85.4829 3.93 85.6029 1.89C86.5329 1.8 89.1129 1.8 90.1929 1.89C90.2829 3.69 90.2529 5.52 90.1929 7.47C93.2529 7.35 105.253 7.38 107.503 7.47C107.623 8.61 107.623 10.23 107.503 11.37C105.103 11.49 88.3329 11.49 85.6029 11.37ZM83.6529 17.55C83.5329 16.53 83.5329 14.79 83.6529 13.68C89.8929 13.56 106.633 13.62 109.453 13.68C109.573 14.73 109.573 16.38 109.453 17.55C106.873 17.73 87.1929 17.67 83.6529 17.55ZM85.3029 28.74C85.1529 26.52 85.2129 21.18 85.3029 19.41C86.2329 19.32 88.8129 19.32 89.8929 19.41C89.9529 20.91 89.9529 23.52 89.8929 24.84C96.5229 24.81 106.153 24.78 108.403 24.84C108.523 25.92 108.523 27.63 108.403 28.74C106.003 28.89 88.0329 28.89 85.3029 28.74ZM144.159 11.61C144.279 12.75 144.279 14.73 144.159 15.87C143.679 15.93 142.749 15.96 141.489 15.96C141.489 21.54 141.459 26.94 141.399 28.65C140.469 28.77 137.949 28.74 136.899 28.65C136.779 25.17 136.809 5.13 136.899 1.65C137.709 1.47 140.349 1.5 141.399 1.65C141.459 3.24 141.489 7.17 141.489 11.55C142.599 11.55 143.499 11.58 144.159 11.61ZM129.249 2.49C130.419 2.4 132.609 2.4 133.779 2.49C133.839 9.39 133.809 25.44 133.779 26.64C131.649 26.79 121.029 26.85 118.599 26.64C118.509 24.33 118.479 8.97 118.599 2.49C119.769 2.37 122.079 2.4 123.099 2.49C123.129 3.27 123.129 6.48 123.129 10.14C124.959 10.11 127.539 10.11 129.249 10.14V2.49ZM129.249 22.62V14.22C127.479 14.25 124.929 14.25 123.129 14.22C123.099 17.7 123.099 21 123.099 22.62C124.539 22.68 127.959 22.68 129.249 22.62ZM170.377 21.45C169.567 21.57 167.167 21.51 166.117 21.45C166.057 18.72 166.087 3.57 166.117 1.65C166.927 1.5 169.477 1.5 170.377 1.65C170.437 4.2 170.437 18.72 170.377 21.45ZM159.937 12.36C158.827 12.36 157.777 12.33 157.117 12.3C157.027 11.16 157.027 9.54 157.117 8.4C157.747 8.37 158.827 8.37 159.967 8.37C159.967 5.22 159.997 2.55 160.027 1.8C160.837 1.65 163.357 1.68 164.257 1.8C164.347 4.38 164.287 18.57 164.257 21.24C163.447 21.33 161.077 21.33 160.027 21.24C159.967 20.01 159.937 16.26 159.937 12.36ZM151.477 6.18C149.617 6.24 147.637 6.24 145.357 6.18C145.237 5.01 145.237 3.33 145.357 2.22C147.157 2.1 153.217 2.07 155.857 2.22C156.067 5.7 156.127 13.23 155.947 16.71C154.867 16.83 152.557 16.83 151.477 16.71C151.477 14.49 151.507 8.37 151.477 6.18ZM170.887 24.78C171.007 25.86 171.007 27.63 170.887 28.74C168.487 28.89 150.667 28.89 147.937 28.74C147.787 26.52 147.847 20.4 147.937 18.63C148.867 18.54 151.327 18.54 152.407 18.63C152.467 20.13 152.467 23.16 152.407 24.78C159.037 24.75 168.637 24.72 170.887 24.78ZM197.975 1.65C198.035 5.4 198.035 25.02 197.975 28.65C197.165 28.77 194.735 28.71 193.685 28.65C193.625 25.02 193.655 4.8 193.685 1.65C194.495 1.47 197.075 1.47 197.975 1.65ZM187.745 1.8C188.555 1.62 191.135 1.65 192.035 1.8C192.125 5.58 192.065 24.81 192.035 28.38C191.225 28.47 188.795 28.47 187.745 28.38C187.685 26.52 187.655 20.49 187.655 14.61C186.245 14.61 184.805 14.61 183.935 14.55C183.845 13.68 183.845 11.1 183.935 10.41C184.775 10.38 186.215 10.38 187.685 10.38C187.685 6.36 187.715 2.97 187.745 1.8ZM181.955 2.37C182.015 4.11 182.045 9.39 182.015 13.11C183.785 17.13 186.155 22.26 187.235 24.96C186.395 25.71 184.445 26.67 183.575 26.85C182.795 25.35 181.115 21.66 179.585 17.94C178.175 21.72 176.645 25.5 175.865 27.09C174.965 26.94 172.895 26.19 172.085 25.47L177.185 12.75C177.155 8.91 177.185 3.84 177.245 2.37C178.055 2.22 180.905 2.19 181.955 2.37ZM220.772 14.07C220.682 11.49 220.682 3.93 220.772 1.65C221.582 1.53 224.192 1.5 225.242 1.65C225.302 4.89 225.332 11.1 225.242 14.07C224.312 14.19 221.822 14.16 220.772 14.07ZM208.892 13.83C203.072 13.83 200.552 11.73 200.552 7.74C200.552 3.81 203.072 1.65 208.892 1.65C214.712 1.65 217.232 3.81 217.232 7.74C217.232 11.73 214.712 13.83 208.892 13.83ZM208.892 9.99C211.832 9.99 212.762 9.18 212.762 7.74C212.762 6.3 211.832 5.49 208.892 5.49C205.892 5.49 205.022 6.3 205.022 7.74C205.022 9.18 205.892 9.99 208.892 9.99ZM202.952 28.74C202.832 27.09 202.772 23.16 202.952 20.4H220.712V19.05H203.012C202.892 18.06 202.892 16.14 203.012 15.45C211.742 15.36 221.552 15.36 225.242 15.45C225.392 17.22 225.392 21.87 225.242 23.79H207.482V25.14H225.752C225.872 26.13 225.812 27.78 225.752 28.74C223.802 28.92 206.792 28.92 202.952 28.74ZM27.35 47.02C27.44 48.16 27.44 49.93 27.35 51.07C26.87 51.13 25.97 51.16 24.77 51.16C24.77 53.8 24.74 56.2 24.71 57.46C23.78 57.58 21.29 57.55 20.24 57.46C20.15 54.88 20.15 43.93 20.24 41.65C21.05 41.53 23.66 41.5 24.71 41.65C24.74 42.82 24.74 44.77 24.77 46.96C25.82 46.96 26.72 46.99 27.35 47.02ZM12.56 46.03C10.7 46.09 4.39996 46.09 2.11996 46.03C1.99996 44.86 1.99996 43.24 2.11996 42.13C4.51996 42.01 14.3 41.98 16.94 42.13C17.12 44.71 17.09 48.73 16.94 51.31C15.86 51.43 13.64 51.43 12.56 51.31C12.59 49.99 12.59 47.32 12.56 46.03ZM18.62 56.65C17 56.77 5.47996 56.77 0.889961 56.65C0.739961 55.48 0.739961 53.86 0.889961 52.75C1.69996 52.72 3.64996 52.69 5.95996 52.66C5.95996 50.98 5.98996 49.27 6.01996 48.25C6.91996 48.13 9.37996 48.13 10.49 48.25C10.52 49.42 10.52 51.07 10.52 52.66C14.03 52.66 17.42 52.69 18.62 52.75C18.74 54.01 18.74 55.51 18.62 56.65ZM13.58 58.36C22.91 58.36 25.22 60.19 25.22 63.79C25.22 67.78 22.46 69.22 13.58 69.22C4.24996 69.22 1.93996 67.39 1.93996 63.79C1.93996 59.8 4.69996 58.36 13.58 58.36ZM13.58 65.59C19.91 65.59 20.66 65.05 20.66 63.79C20.66 62.62 19.88 61.99 13.58 61.99C7.24996 61.99 6.49996 62.53 6.49996 63.79C6.49996 64.96 7.27996 65.59 13.58 65.59ZM47.3876 55.84C46.5776 55.93 44.2076 55.93 43.1576 55.84C43.0376 53.11 43.0676 43.75 43.1576 41.8C43.9676 41.65 46.4876 41.68 47.3876 41.8C47.4176 42.73 47.4176 44.41 47.4476 46.33H49.3976C49.3976 44.2 49.4276 42.37 49.4276 41.65C50.2376 41.5 52.7876 41.5 53.6876 41.65C53.7476 44.2 53.7476 53.62 53.6876 56.35C52.8776 56.47 50.4776 56.41 49.4276 56.35C49.3976 55.21 49.3976 52.84 49.3976 50.32H47.4176C47.4176 52.6 47.3876 54.73 47.3876 55.84ZM31.2776 56.05C30.3776 55.66 28.6676 54.46 27.9176 53.71C28.6976 52.42 31.3676 48.61 32.8976 46.51C32.8676 44.62 32.9276 43.12 32.9576 41.95C33.7676 41.8 36.6176 41.77 37.6676 41.95C37.6976 43.36 37.7576 44.95 37.7276 46.84C39.4676 48.85 42.0176 51.88 42.8276 52.99C42.1376 53.83 40.5776 55.18 39.7076 55.63C38.8676 54.76 36.8876 52.42 35.2676 50.44C33.8276 52.54 32.0576 55.09 31.2776 56.05ZM42.2276 57.28C51.5576 57.28 53.8676 59.26 53.8676 63.19C53.8676 67.51 51.1076 69.1 42.2276 69.1C32.8976 69.1 30.5876 67.12 30.5876 63.19C30.5876 58.87 33.3476 57.28 42.2276 57.28ZM42.2276 65.38C48.5576 65.38 49.3076 64.66 49.3076 63.19C49.3076 61.81 48.5276 61 42.2276 61C35.8976 61 35.1476 61.72 35.1476 63.19C35.1476 64.57 35.9276 65.38 42.2276 65.38ZM81.2853 41.65C81.3453 45.4 81.3453 65.02 81.2853 68.65C80.4753 68.77 78.0453 68.71 76.9953 68.65C76.9353 65.02 76.9653 44.8 76.9953 41.65C77.8053 41.47 80.3853 41.47 81.2853 41.65ZM71.2053 41.8C72.0153 41.62 74.5953 41.65 75.4953 41.8C75.5853 45.58 75.5253 64.81 75.4953 68.38C74.6853 68.47 72.2553 68.47 71.2053 68.38C71.1453 66.67 71.1153 61.39 71.1153 55.93C70.4853 55.96 69.8553 55.96 69.2553 55.96C69.0753 64.75 67.1253 67.36 62.5953 67.36C57.8253 67.36 55.9053 64.48 55.9053 54.58C55.9053 44.68 57.8253 41.8 62.5953 41.8C66.8853 41.8 68.8353 44.11 69.1953 51.73H71.1453C71.1453 47.14 71.1753 43.09 71.2053 41.8ZM62.5953 63.16C64.3653 63.16 64.7853 61.96 64.7853 54.58C64.7853 47.2 64.3653 46 62.5953 46C60.8253 46 60.3753 47.2 60.3753 54.58C60.3753 61.96 60.8253 63.16 62.5953 63.16ZM104.023 50.59C102.283 50.59 100.153 50.56 99.2829 50.53C99.1929 49.39 99.1929 47.53 99.2829 46.39C100.123 46.36 102.253 46.36 104.023 46.36C104.023 44.14 104.053 42.34 104.083 41.65C104.893 41.53 107.503 41.5 108.553 41.65C108.613 44.89 108.643 58.03 108.553 61C107.623 61.12 105.133 61.09 104.083 61C104.023 59.65 104.023 55 104.023 50.59ZM92.4429 51.64C90.4629 53.86 88.2129 56.2 86.4729 57.91C85.6929 57.37 84.0429 55.78 83.4729 54.94C85.4829 52.75 87.9129 50.26 90.0729 47.98C90.0729 45.88 90.0729 43.24 90.1029 42.25C90.9129 42.1 93.7029 42.07 94.7529 42.25C94.7829 43.24 94.7829 45.91 94.7829 48.04C97.0629 50.02 99.5229 52.12 101.623 53.98C101.143 54.88 99.6729 56.62 98.9229 57.22C97.0329 55.72 94.6029 53.65 92.4429 51.64ZM109.063 64.84C109.183 65.92 109.183 67.63 109.063 68.74C106.663 68.89 89.4429 68.89 86.7129 68.74C86.5629 66.52 86.6229 61.3 86.7129 59.53C87.6429 59.44 90.1029 59.44 91.1829 59.53C91.2429 61.03 91.2429 63.22 91.1829 64.84C97.8129 64.81 106.813 64.78 109.063 64.84ZM142.779 41.65C142.839 45.4 142.839 65.02 142.779 68.65C141.969 68.77 139.509 68.71 138.459 68.65C138.429 66.91 138.429 61.39 138.429 55.78H136.539C136.539 61.3 136.509 66.67 136.509 68.38C135.699 68.47 133.269 68.47 132.219 68.38C132.099 64.75 132.129 44.95 132.219 41.8C133.029 41.62 135.609 41.65 136.509 41.8C136.539 43.3 136.569 47.2 136.569 51.61H138.429C138.429 46.99 138.459 42.91 138.459 41.65C139.269 41.47 141.879 41.47 142.779 41.65ZM118.089 42.49C120.129 42.37 127.599 42.34 130.029 42.49C130.119 46.81 130.119 63.52 130.029 66.64C128.469 66.79 121.059 66.82 118.089 66.64C117.939 62.56 117.999 46.39 118.089 42.49ZM125.709 62.74C125.769 60.43 125.739 48.88 125.709 46.36C124.719 46.3 123.549 46.3 122.409 46.36C122.379 48.76 122.349 60.58 122.409 62.74C123.429 62.83 124.809 62.8 125.709 62.74ZM165.577 54.07C165.487 51.49 165.487 43.93 165.577 41.65C166.387 41.53 168.997 41.5 170.047 41.65C170.107 44.89 170.137 51.1 170.047 54.07C169.117 54.19 166.627 54.16 165.577 54.07ZM153.697 53.83C147.877 53.83 145.357 51.73 145.357 47.74C145.357 43.81 147.877 41.65 153.697 41.65C159.517 41.65 162.037 43.81 162.037 47.74C162.037 51.73 159.517 53.83 153.697 53.83ZM153.697 49.99C156.637 49.99 157.567 49.18 157.567 47.74C157.567 46.3 156.637 45.49 153.697 45.49C150.697 45.49 149.827 46.3 149.827 47.74C149.827 49.18 150.697 49.99 153.697 49.99ZM147.757 68.74C147.637 67.09 147.577 63.16 147.757 60.4H165.517V59.05H147.817C147.697 58.06 147.697 56.14 147.817 55.45C156.547 55.36 166.357 55.36 170.047 55.45C170.197 57.22 170.197 61.87 170.047 63.79H152.287V65.14H170.557C170.677 66.13 170.617 67.78 170.557 68.74C168.607 68.92 151.597 68.92 147.757 68.74ZM197.975 41.65C198.035 45.4 198.035 65.02 197.975 68.65C197.165 68.77 194.705 68.71 193.655 68.65C193.625 66.91 193.625 61.39 193.625 55.78H191.735C191.735 61.3 191.705 66.67 191.705 68.38C190.895 68.47 188.465 68.47 187.415 68.38C187.295 64.75 187.325 44.95 187.415 41.8C188.225 41.62 190.805 41.65 191.705 41.8C191.735 43.3 191.765 47.2 191.765 51.61H193.625C193.625 46.99 193.655 42.91 193.655 41.65C194.465 41.47 197.075 41.47 197.975 41.65ZM173.285 42.49C175.325 42.37 182.795 42.34 185.225 42.49C185.315 46.81 185.315 63.52 185.225 66.64C183.665 66.79 176.255 66.82 173.285 66.64C173.135 62.56 173.195 46.39 173.285 42.49ZM180.905 62.74C180.965 60.43 180.935 48.88 180.905 46.36C179.915 46.3 178.745 46.3 177.605 46.36C177.575 48.76 177.545 60.58 177.605 62.74C178.625 62.83 180.005 62.8 180.905 62.74ZM220.772 54.07C220.682 51.49 220.682 43.93 220.772 41.65C221.582 41.53 224.192 41.5 225.242 41.65C225.302 44.89 225.332 51.1 225.242 54.07C224.312 54.19 221.822 54.16 220.772 54.07ZM208.892 53.83C203.072 53.83 200.552 51.73 200.552 47.74C200.552 43.81 203.072 41.65 208.892 41.65C214.712 41.65 217.232 43.81 217.232 47.74C217.232 51.73 214.712 53.83 208.892 53.83ZM208.892 49.99C211.832 49.99 212.762 49.18 212.762 47.74C212.762 46.3 211.832 45.49 208.892 45.49C205.892 45.49 205.022 46.3 205.022 47.74C205.022 49.18 205.892 49.99 208.892 49.99ZM202.952 68.74C202.832 67.09 202.772 63.16 202.952 60.4H220.712V59.05H203.012C202.892 58.06 202.892 56.14 203.012 55.45C211.742 55.36 221.552 55.36 225.242 55.45C225.392 57.22 225.392 61.87 225.242 63.79H207.482V65.14H225.752C225.872 66.13 225.812 67.78 225.752 68.74C223.802 68.92 206.792 68.92 202.952 68.74Z" fill="#202020"/>
</svg>
