<svg width="257" height="32" viewBox="0 0 257 32" fill="none" xmlns="http://www.w3.org/2000/svg">
<path d="M28.466 6.888C28.562 8.104 28.562 9.992 28.466 11.208C27.954 11.272 26.994 11.304 25.714 11.304C25.714 14.12 25.682 16.68 25.65 18.024C24.658 18.152 22.002 18.12 20.882 18.024C20.786 15.272 20.786 3.592 20.882 1.16C21.746 1.032 24.53 0.999998 25.65 1.16C25.682 2.408 25.682 4.488 25.714 6.824C26.834 6.824 27.794 6.856 28.466 6.888ZM12.69 5.832C10.706 5.896 3.986 5.896 1.554 5.832C1.426 4.584 1.426 2.856 1.554 1.672C4.114 1.544 14.546 1.512 17.362 1.672C17.554 4.424 17.522 8.712 17.362 11.464C16.21 11.592 13.842 11.592 12.69 11.464C12.722 10.056 12.722 7.208 12.69 5.832ZM19.154 17.16C17.426 17.288 5.138 17.288 0.242 17.16C0.082 15.912 0.082 14.184 0.242 13C1.106 12.968 3.186 12.936 5.65 12.904C5.65 11.112 5.682 9.288 5.714 8.2C6.674 8.072 9.298 8.072 10.482 8.2C10.514 9.448 10.514 11.208 10.514 12.904C14.258 12.904 17.874 12.936 19.154 13C19.282 14.344 19.282 15.944 19.154 17.16ZM13.778 18.984C23.73 18.984 26.194 20.936 26.194 24.776C26.194 29.032 23.25 30.568 13.778 30.568C3.826 30.568 1.362 28.616 1.362 24.776C1.362 20.52 4.306 18.984 13.778 18.984ZM13.778 26.696C20.53 26.696 21.33 26.12 21.33 24.776C21.33 23.528 20.498 22.856 13.778 22.856C7.026 22.856 6.226 23.432 6.226 24.776C6.226 26.024 7.058 26.696 13.778 26.696ZM49.8395 16.296C48.9755 16.392 46.4475 16.392 45.3275 16.296C45.1995 13.384 45.2315 3.4 45.3275 1.32C46.1915 1.16 48.8795 1.192 49.8395 1.32C49.8715 2.312 49.8715 4.104 49.9035 6.152H51.9835C51.9835 3.88 52.0155 1.928 52.0155 1.16C52.8795 0.999998 55.5995 0.999998 56.5595 1.16C56.6235 3.88 56.6235 13.928 56.5595 16.84C55.6955 16.968 53.1355 16.904 52.0155 16.84C51.9835 15.624 51.9835 13.096 51.9835 10.408H49.8715C49.8715 12.84 49.8395 15.112 49.8395 16.296ZM32.6555 16.52C31.6955 16.104 29.8715 14.824 29.0715 14.024C29.9035 12.648 32.7515 8.584 34.3835 6.344C34.3515 4.328 34.4155 2.728 34.4475 1.48C35.3115 1.32 38.3515 1.288 39.4715 1.48C39.5035 2.984 39.5675 4.68 39.5355 6.696C41.3915 8.84 44.1115 12.072 44.9755 13.256C44.2395 14.152 42.5755 15.592 41.6475 16.072C40.7515 15.144 38.6395 12.648 36.9115 10.536C35.3755 12.776 33.4875 15.496 32.6555 16.52ZM44.3355 17.832C54.2875 17.832 56.7515 19.944 56.7515 24.136C56.7515 28.744 53.8075 30.44 44.3355 30.44C34.3835 30.44 31.9195 28.328 31.9195 24.136C31.9195 19.528 34.8635 17.832 44.3355 17.832ZM44.3355 26.472C51.0875 26.472 51.8875 25.704 51.8875 24.136C51.8875 22.664 51.0555 21.8 44.3355 21.8C37.5835 21.8 36.7835 22.568 36.7835 24.136C36.7835 25.608 37.6155 26.472 44.3355 26.472ZM59.437 31.336C59.341 29.736 59.373 25.224 59.437 23.752C60.461 23.624 63.533 23.624 64.429 23.752C64.397 25.672 64.077 29.352 63.789 31.336C62.829 31.496 60.397 31.432 59.437 31.336ZM99.77 1.16C99.898 5.544 99.898 26.152 99.77 29.96C98.778 30.088 96.09 30.056 94.97 29.96C94.842 26.248 94.874 4.872 94.97 1.16C95.834 0.967999 98.65 0.999998 99.77 1.16ZM84.89 1.928C84.954 3.72 84.986 8.872 84.954 12.808C87.45 16.84 91.002 22.376 92.634 25.192C91.866 26.088 89.754 27.528 88.858 27.816C87.674 26.152 84.826 21.64 82.426 17.48C80.41 21.8 78.042 26.472 76.954 28.264C76.026 28.04 73.69 26.92 72.89 26.088C74.394 23.08 77.626 16.744 79.802 12.456C79.77 8.456 79.802 3.432 79.866 1.928C80.73 1.768 83.77 1.736 84.89 1.928ZM130.584 6.888C130.68 8.104 130.68 9.992 130.584 11.208C130.072 11.272 129.112 11.304 127.832 11.304C127.832 13.896 127.8 16.296 127.768 17.576C126.776 17.704 124.12 17.672 123 17.576C122.904 14.824 122.904 3.592 123 1.16C123.864 1.032 126.648 0.999998 127.768 1.16C127.8 2.408 127.8 4.52 127.832 6.824C128.952 6.824 129.912 6.856 130.584 6.888ZM105.72 17.704C104.888 17.032 103.384 15.336 102.84 14.376L109.496 9.128V5.896C106.776 5.896 104.408 5.896 103.448 5.832C103.32 4.552 103.32 2.856 103.448 1.704C106.04 1.64 114.712 1.576 120.44 1.704C120.536 2.92 120.536 4.712 120.44 5.832C119.256 5.864 117.016 5.864 114.52 5.896V9.032C116.824 10.472 119.064 11.848 121.368 13.32C120.888 14.28 119.576 16.2 118.84 16.904C116.6 15.624 114.296 14.216 112.088 12.712C109.976 14.472 107.672 16.232 105.72 17.704ZM104.152 19.016C106.744 18.888 124.856 18.856 127.768 19.016C127.928 21.704 127.864 28.488 127.768 30.056C126.776 30.152 124.184 30.152 123.032 30.056C122.968 28.424 123.032 25.224 123.032 23.272C115.96 23.272 106.552 23.368 104.152 23.272C104.024 22.056 104.024 20.232 104.152 19.016ZM141.909 3.432C143.509 3.432 145.141 3.464 146.741 3.496C146.837 4.712 146.837 6.504 146.741 7.624C143.477 7.688 134.453 7.752 132.085 7.624C131.957 6.344 131.957 4.648 132.085 3.496C133.141 3.464 134.869 3.432 136.885 3.432C136.885 2.312 136.917 1.192 136.949 0.519999C137.813 0.359999 140.757 0.327999 141.877 0.519999C141.909 1.192 141.941 2.312 141.909 3.432ZM158.997 1.16C159.061 5.16 159.061 26.088 158.997 29.96C158.133 30.088 155.541 30.024 154.421 29.96C154.389 28.136 154.389 22.344 154.389 16.392H152.629C152.629 22.216 152.597 27.848 152.597 29.672C151.733 29.768 149.141 29.768 148.021 29.672C147.893 25.8 147.925 4.68 148.021 1.32C148.885 1.128 151.637 1.16 152.597 1.32C152.629 2.92 152.661 7.208 152.661 11.976C153.237 11.976 153.845 11.976 154.389 12.008C154.389 6.984 154.421 2.536 154.421 1.16C155.285 0.967999 158.037 0.967999 158.997 1.16ZM139.413 8.936C144.725 8.936 146.485 11.816 146.485 19.016C146.485 26.216 144.725 29.096 139.413 29.096C134.101 29.096 132.341 26.216 132.341 19.016C132.341 11.816 134.101 8.936 139.413 8.936ZM139.413 25.064C141.397 25.064 141.973 23.688 141.973 19.016C141.973 14.344 141.397 12.968 139.413 12.968C137.397 12.968 136.853 14.344 136.853 19.016C136.853 23.688 137.397 25.064 139.413 25.064ZM187.315 17.864C185.043 18.024 165.875 18.088 163.283 17.864C163.187 14.12 163.155 5.704 163.283 1.992C164.531 1.864 167.091 1.896 168.179 1.992C168.211 2.664 168.211 4.04 168.211 5.608C171.731 5.576 178.931 5.576 182.419 5.608V1.992C183.667 1.896 186.067 1.896 187.315 1.992C187.411 6.152 187.411 14.344 187.315 17.864ZM182.419 10.056C178.963 10.088 171.699 10.088 168.211 10.056C168.211 11.56 168.179 12.872 168.179 13.544C169.715 13.608 181.043 13.608 182.419 13.544V10.056ZM189.043 25.032C189.171 26.216 189.171 27.848 189.043 29.192C186.291 29.384 165.299 29.32 161.523 29.192C161.395 28.04 161.395 26.28 161.523 25.032C164.115 24.968 168.371 24.968 172.787 24.968C172.787 22.952 172.819 20.744 172.851 19.656C173.811 19.464 176.562 19.496 177.747 19.656C177.779 20.936 177.779 23.08 177.779 24.968C182.995 24.968 187.635 25 189.043 25.032ZM217.872 1.16C217.936 5.16 217.936 26.088 217.872 29.96C217.008 30.088 214.416 30.024 213.296 29.96C213.232 26.088 213.264 4.52 213.296 1.16C214.16 0.967999 216.912 0.967999 217.872 1.16ZM206.96 1.32C207.824 1.128 210.576 1.16 211.536 1.32C211.632 5.352 211.568 25.864 211.536 29.672C210.672 29.768 208.08 29.768 206.96 29.672C206.896 27.688 206.864 21.256 206.864 14.984C205.36 14.984 203.824 14.984 202.896 14.92C202.8 13.992 202.8 11.24 202.896 10.504C203.792 10.472 205.328 10.472 206.896 10.472C206.896 6.184 206.928 2.568 206.96 1.32ZM200.784 1.928C200.848 3.784 200.88 9.416 200.848 13.384C202.736 17.672 205.264 23.144 206.416 26.024C205.52 26.824 203.44 27.848 202.512 28.04C201.68 26.44 199.888 22.504 198.256 18.536C196.752 22.568 195.12 26.6 194.288 28.296C193.328 28.136 191.12 27.336 190.256 26.568L195.696 13C195.664 8.904 195.696 3.496 195.76 1.928C196.624 1.768 199.664 1.736 200.784 1.928ZM234.158 17.8C224.141 17.8 221.454 15.048 221.454 9.704C221.454 4.2 224.366 1.608 234.158 1.608C244.174 1.608 246.862 4.392 246.862 9.704C246.862 15.208 243.95 17.8 234.158 17.8ZM234.158 5.896C228.302 5.896 226.414 6.76 226.414 9.704C226.414 12.392 228.014 13.512 234.158 13.512C240.014 13.512 241.902 12.648 241.902 9.704C241.902 7.016 240.302 5.896 234.158 5.896ZM247.918 25.032C248.046 26.216 248.046 27.848 247.918 29.192C245.166 29.384 224.174 29.32 220.398 29.192C220.27 28.04 220.27 26.28 220.398 25.032C221.71 25 223.438 25 225.39 25C225.358 22.824 225.39 20.136 225.422 18.92C226.382 18.792 229.07 18.792 230.254 18.92C230.318 20.328 230.286 22.92 230.286 24.968C232.846 24.968 235.534 24.968 237.998 25C237.998 22.92 237.966 20.328 238.03 18.92C239.214 18.792 241.902 18.792 242.862 18.92C242.894 20.136 242.926 22.824 242.894 25C245.294 25 247.118 25.032 247.918 25.032ZM251.915 21.448C251.787 18.728 251.659 5.288 251.627 2.312C253.707 2.152 254.923 2.152 256.939 2.312C256.939 5.288 256.747 18.76 256.619 21.448C255.211 21.544 253.515 21.544 251.915 21.448ZM251.819 28.744C251.755 27.24 251.723 25.576 251.819 24.104C253.451 23.976 255.275 23.976 256.843 24.104C256.907 25.608 256.907 27.24 256.843 28.712C255.243 28.872 253.387 28.84 251.819 28.744Z" fill="#202020"/>
</svg>
