<svg width="24" height="24" viewBox="0 0 24 24" fill="none" xmlns="http://www.w3.org/2000/svg">
<path fill-rule="evenodd" clip-rule="evenodd" d="M4 3.9C4 2.85066 4.89543 2 6 2H18C19.1046 2 20 2.85066 20 3.9V19.1C20 20.1493 19.1046 21 18 21H6C4.89543 21 4 20.1493 4 19.1V3.9ZM8 8.65C8 8.12533 8.44772 7.7 9 7.7H15C15.5523 7.7 16 8.12533 16 8.65C16 9.17467 15.5523 9.6 15 9.6H9C8.44772 9.6 8 9.17467 8 8.65ZM9 12.45C8.44772 12.45 8 12.8753 8 13.4C8 13.9247 8.44772 14.35 9 14.35H12C12.5523 14.35 13 13.9247 13 13.4C13 12.8753 12.5523 12.45 12 12.45H9Z" fill="#C3C8D0"/>
<path fill-rule="evenodd" clip-rule="evenodd" d="M4 3.9C4 2.85066 4.89543 2 6 2H18C19.1046 2 20 2.85066 20 3.9V19.1C20 20.1493 19.1046 21 18 21H6C4.89543 21 4 20.1493 4 19.1V3.9ZM8 8.65C8 8.12533 8.44772 7.7 9 7.7H15C15.5523 7.7 16 8.12533 16 8.65C16 9.17467 15.5523 9.6 15 9.6H9C8.44772 9.6 8 9.17467 8 8.65ZM9 12.45C8.44772 12.45 8 12.8753 8 13.4C8 13.9247 8.44772 14.35 9 14.35H12C12.5523 14.35 13 13.9247 13 13.4C13 12.8753 12.5523 12.45 12 12.45H9Z" fill="#202020"/>
</svg>
