<svg width="28" height="28" viewBox="0 0 28 28" fill="none" xmlns="http://www.w3.org/2000/svg">
<circle cx="13.8" cy="13.8" r="8.8" stroke="#303030" stroke-width="2.4"/>
<circle cx="13.8" cy="13.8" r="2" fill="#303030"/>
<path fill-rule="evenodd" clip-rule="evenodd" d="M14 1.79999C14.6627 1.79999 15.2 2.33725 15.2 2.99999V6.99999C15.2 7.66273 14.6627 8.19999 14 8.19999C13.3372 8.19999 12.8 7.66273 12.8 6.99999V2.99999C12.8 2.33725 13.3372 1.79999 14 1.79999ZM6.99999 15.2C7.66273 15.2 8.19999 14.6627 8.19999 14C8.19999 13.3372 7.66273 12.8 6.99999 12.8H2.99999C2.33725 12.8 1.79999 13.3372 1.79999 14C1.79999 14.6627 2.33725 15.2 2.99999 15.2H6.99999ZM25 15.2C25.6627 15.2 26.2 14.6627 26.2 14C26.2 13.3372 25.6627 12.8 25 12.8H21C20.3372 12.8 19.8 13.3372 19.8 14C19.8 14.6627 20.3372 15.2 21 15.2H25ZM15.2 21C15.2 20.3372 14.6627 19.8 14 19.8C13.3372 19.8 12.8 20.3372 12.8 21V25C12.8 25.6627 13.3372 26.2 14 26.2C14.6627 26.2 15.2 25.6627 15.2 25V21Z" fill="#303030"/>
</svg>
