<svg width="20" height="20" viewBox="0 0 20 20" fill="none" xmlns="http://www.w3.org/2000/svg">
<path d="M9.16667 7.08301C9.16667 6.62277 9.53976 6.24967 10 6.24967C10.4602 6.24967 10.8333 6.62277 10.8333 7.08301V10.0712L12.3437 11.5816C12.6691 11.9071 12.6691 12.4347 12.3437 12.7601C12.0183 13.0856 11.4906 13.0856 11.1652 12.7601L9.41067 11.0056C9.24505 10.84 9.16372 10.622 9.16667 10.4049V7.08301Z" fill="#212121"/>
<path fill-rule="evenodd" clip-rule="evenodd" d="M2.5 4.99967C2.5 5.7837 2.80998 6.49535 3.31197 7.01865C2.79274 8.03867 2.5 9.19332 2.5 10.4163C2.5 12.6116 3.44316 14.5866 4.94636 15.9581L4.41074 16.4938C4.08531 16.8192 4.08531 17.3468 4.41074 17.6723C4.73618 17.9977 5.26382 17.9977 5.58926 17.6723L6.31269 16.9488C7.40155 17.5648 8.65972 17.9163 10 17.9163C11.3403 17.9163 12.5984 17.5648 13.6873 16.9488L14.4107 17.6723C14.7362 17.9977 15.2638 17.9977 15.5893 17.6723C15.9147 17.3468 15.9147 16.8192 15.5893 16.4938L15.0536 15.9581C16.5568 14.5866 17.5 12.6116 17.5 10.4163C17.5 9.19331 17.2073 8.03866 16.688 7.01862C17.1905 6.49501 17.4999 5.78388 17.4999 4.99967C17.4999 3.38884 16.1941 2.08301 14.5833 2.08301C13.6246 2.08301 12.7751 2.54534 12.2439 3.25777C11.5354 3.03592 10.7817 2.91634 10 2.91634C9.21835 2.91634 8.46462 3.03592 7.75612 3.25777C7.22515 2.5458 6.37545 2.08301 5.41667 2.08301C3.80584 2.08301 2.5 3.38884 2.5 4.99967ZM5.41667 3.74967C4.72631 3.74967 4.16667 4.30932 4.16667 4.99967C4.16667 5.19681 4.21212 5.38329 4.29352 5.54928C4.82004 4.93255 5.44479 4.4022 6.14354 3.98247C5.9384 3.83565 5.68736 3.74967 5.41667 3.74967ZM13.8565 3.98247C14.5552 4.40218 15.1799 4.93248 15.7064 5.54916C15.7877 5.38313 15.8333 5.19659 15.8333 4.99967C15.8333 4.30932 15.2736 3.74967 14.5833 3.74967C14.3126 3.74967 14.0615 3.83577 13.8565 3.98247ZM4.16667 10.4163C4.16667 7.19468 6.77834 4.58301 10 4.58301C13.2217 4.58301 15.8333 7.19468 15.8333 10.4163C15.8333 13.638 13.2217 16.2497 10 16.2497C6.77834 16.2497 4.16667 13.638 4.16667 10.4163Z" fill="#212121"/>
</svg>
