<svg width="24" height="24" viewBox="0 0 24 24" fill="none" xmlns="http://www.w3.org/2000/svg">
<path fill-rule="evenodd" clip-rule="evenodd" d="M8 16.5C9.80748 16.5 11.2727 14.7091 11.2727 12.5C11.2727 10.2909 9.80748 8.5 8 8.5C6.19252 8.5 4.72727 10.2909 4.72727 12.5C4.72727 14.7091 6.19252 16.5 8 16.5ZM8 18C10.4853 18 12.5 15.5376 12.5 12.5C12.5 9.46243 10.4853 7 8 7C5.51472 7 3.5 9.46243 3.5 12.5C3.5 15.5376 5.51472 18 8 18Z" fill="#303030"/>
<path fill-rule="evenodd" clip-rule="evenodd" d="M16 16.5C17.8075 16.5 19.2727 14.7091 19.2727 12.5C19.2727 10.2909 17.8075 8.5 16 8.5C14.1925 8.5 12.7273 10.2909 12.7273 12.5C12.7273 14.7091 14.1925 16.5 16 16.5ZM16 18C18.4853 18 20.5 15.5376 20.5 12.5C20.5 9.46243 18.4853 7 16 7C13.5147 7 11.5 9.46243 11.5 12.5C11.5 15.5376 13.5147 18 16 18Z" fill="#303030"/>
<path d="M11.5 12.5C11.5 13.8807 10.6046 15 9.5 15C8.39543 15 7.5 13.8807 7.5 12.5C7.5 11.1193 8.39543 10 9.5 10C10.6046 10 11.5 11.1193 11.5 12.5Z" fill="#303030"/>
<path d="M19.5 12.5C19.5 13.8807 18.6046 15 17.5 15C16.3954 15 15.5 13.8807 15.5 12.5C15.5 11.1193 16.3954 10 17.5 10C18.6046 10 19.5 11.1193 19.5 12.5Z" fill="#303030"/>
</svg>
