<svg width="36" height="36" viewBox="0 0 36 36" fill="none" xmlns="http://www.w3.org/2000/svg">
<path fill-rule="evenodd" clip-rule="evenodd" d="M16.2916 6.12131C10.6747 6.12131 6.12128 10.6747 6.12128 16.2916C6.12128 21.9085 10.6747 26.4619 16.2916 26.4619C18.6689 26.4619 20.8557 25.6462 22.5874 24.2794L26.9574 28.6495C27.4247 29.1167 28.1823 29.1167 28.6495 28.6495C29.1168 28.1822 29.1168 27.4246 28.6495 26.9573L24.2795 22.5873C25.6462 20.8556 26.4618 18.6689 26.4618 16.2916C26.4618 10.6747 21.9084 6.12131 16.2916 6.12131ZM8.51428 16.2916C8.51428 11.9963 11.9963 8.51432 16.2916 8.51432C20.5868 8.51432 24.0688 11.9963 24.0688 16.2916C24.0688 20.5869 20.5868 24.0689 16.2916 24.0689C11.9963 24.0689 8.51428 20.5869 8.51428 16.2916Z" fill="#303030"/>
</svg>
