<svg width="36" height="36" viewBox="0 0 36 36" fill="none" xmlns="http://www.w3.org/2000/svg">
<path fill-rule="evenodd" clip-rule="evenodd" d="M18 19.8883L22.7207 24.6089C23.2421 25.1303 24.0875 25.1303 24.6089 24.6089C25.1304 24.0875 25.1304 23.2421 24.6089 22.7207L19.8883 18L24.6089 13.2793C25.1304 12.7579 25.1304 11.9125 24.6089 11.3911C24.0875 10.8697 23.2421 10.8697 22.7207 11.3911L18 16.1117L13.2793 11.3911C12.7579 10.8696 11.9125 10.8696 11.3911 11.3911C10.8696 11.9125 10.8696 12.7579 11.3911 13.2793L16.1117 18L11.3911 22.7207C10.8696 23.2421 10.8696 24.0875 11.3911 24.6089C11.9125 25.1304 12.7579 25.1304 13.2793 24.6089L18 19.8883Z" fill="#303030"/>
</svg>
