<svg width="36" height="36" viewBox="0 0 36 36" fill="none" xmlns="http://www.w3.org/2000/svg">
<path fill-rule="evenodd" clip-rule="evenodd" d="M18 33C26.2843 33 33 26.2843 33 18C33 9.71573 26.2843 3 18 3C9.71573 3 3 9.71573 3 18C3 26.2843 9.71573 33 18 33ZM18 27.6C19.3889 27.6 20.4783 26.5028 20.4783 25.1648C20.4783 23.8268 19.3889 22.7296 18 22.7296C16.6111 22.7296 15.5217 23.8268 15.5217 25.1648C15.5217 26.5028 16.6111 27.6 18 27.6ZM16.8384 20.2944H19.1357C19.4757 20.2944 19.7558 20.0321 19.7721 19.6984L20.2827 9.25611C20.3002 8.89895 20.0103 8.6 19.6464 8.6H16.352C15.9888 8.6 15.699 8.89808 15.7156 9.25468L16.202 19.697C16.2175 20.0313 16.4979 20.2944 16.8384 20.2944Z" fill="#202020"/>
</svg>
